<?xml version="1.0" encoding="UTF-8"?>
<svg id="Nav" xmlns="http://www.w3.org/2000/svg" viewBox="0 0 728 65">
  <defs>
    <style>
      .cls-1 {
        fill: #797b7c;
      }

      .cls-2 {
        fill: none;
        stroke: #797b7c;
        stroke-miterlimit: 10;
        stroke-width: .75px;
      }
    </style>
  </defs>
  <g>
    <line class="cls-2" x1="728" y1="32.5" x2="2.68" y2="32.5"/>
    <circle class="cls-1" cx="2.82" cy="32.5" r="2.82"/>
  </g>
  <g>
    <path class="cls-1" d="m25.25,12.57c-.83,0-1.6-.16-2.33-.46-.72-.31-1.36-.74-1.91-1.29-.55-.55-.98-1.19-1.29-1.91-.31-.72-.46-1.5-.46-2.33s.15-1.6.46-2.33c.31-.72.74-1.36,1.29-1.91.55-.55,1.19-.98,1.91-1.29.72-.31,1.5-.46,2.33-.46s1.6.16,2.33.46c.72.31,1.36.74,1.91,1.29.55.55.98,1.19,1.29,1.91s.46,1.5.46,2.33-.16,1.6-.46,2.33-.74,1.36-1.29,1.91c-.55.55-1.19.98-1.91,1.29-.72.31-1.5.46-2.33.46Zm0-1.36c.64,0,1.24-.12,1.8-.36.56-.24,1.05-.57,1.48-1,.43-.43.76-.92,1-1.48.24-.56.36-1.16.36-1.8s-.12-1.24-.36-1.8c-.24-.56-.57-1.05-1-1.48-.43-.43-.92-.76-1.48-1-.56-.24-1.16-.36-1.8-.36s-1.24.12-1.8.36c-.56.24-1.05.57-1.48,1-.43.43-.76.92-1,1.48-.24.56-.36,1.16-.36,1.8s.12,1.24.36,1.8c.24.56.57,1.05,1,1.48.43.43.92.76,1.48,1,.56.24,1.16.36,1.8.36Zm-3.31-4.63c0-.62.15-1.19.45-1.7.3-.51.71-.92,1.22-1.22.51-.3,1.08-.45,1.7-.45.54,0,1.04.12,1.5.35.46.23.83.55,1.13.94.3.4.49.85.56,1.35h-1.38c-.08-.39-.29-.7-.64-.95-.35-.25-.74-.38-1.18-.38-.38,0-.72.09-1.03.28s-.56.43-.75.75-.28.66-.28,1.04.09.72.28,1.03.44.56.75.74.66.28,1.03.28c.44,0,.81-.12,1.11-.37s.5-.57.57-.96h1.38c-.07.5-.24.96-.52,1.36s-.64.72-1.07.95c-.44.23-.92.35-1.46.35-.62,0-1.19-.15-1.7-.46-.51-.3-.92-.71-1.22-1.22-.3-.51-.45-1.08-.45-1.7Z"/>
    <path class="cls-1" d="m33.76,12.39v-1.07l3.87-4.2c.43-.47.79-.88,1.08-1.23s.5-.69.65-1.01.22-.66.22-1.02c0-.41-.1-.76-.29-1.05s-.45-.52-.78-.68-.7-.24-1.12-.24c-.44,0-.83.09-1.15.27s-.58.43-.75.76-.27.71-.27,1.14h-1.42c0-.69.16-1.29.48-1.81s.75-.93,1.3-1.21,1.17-.43,1.86-.43,1.31.14,1.84.43.95.68,1.26,1.17.46,1.04.46,1.65c0,.42-.08.83-.23,1.23s-.42.85-.8,1.36-.91,1.12-1.6,1.85l-2.55,2.71v.09h5.37v1.3h-7.41Z"/>
    <path class="cls-1" d="m47.37,12.55c-.86,0-1.6-.23-2.21-.7s-1.08-1.15-1.4-2.04-.48-1.96-.48-3.23.16-2.34.49-3.23.79-1.57,1.4-2.05,1.34-.71,2.2-.71,1.59.24,2.21.71,1.08,1.16,1.4,2.05.48,1.97.48,3.23-.16,2.34-.48,3.23-.79,1.57-1.39,2.04-1.35.7-2.22.7Zm0-1.3c.57,0,1.05-.18,1.45-.55s.7-.9.91-1.6.31-1.54.31-2.52-.1-1.83-.31-2.54-.51-1.24-.91-1.61-.88-.55-1.45-.55-1.05.19-1.45.56-.7.91-.91,1.61-.31,1.54-.31,2.53.1,1.82.31,2.52.51,1.23.91,1.6.88.55,1.45.55Z"/>
    <path class="cls-1" d="m53.62,12.39v-1.07l3.87-4.2c.43-.47.79-.88,1.08-1.23s.5-.69.65-1.01.22-.66.22-1.02c0-.41-.1-.76-.29-1.05s-.45-.52-.78-.68-.7-.24-1.12-.24c-.44,0-.83.09-1.15.27s-.58.43-.75.76-.27.71-.27,1.14h-1.42c0-.69.16-1.29.48-1.81s.75-.93,1.3-1.21,1.17-.43,1.86-.43,1.31.14,1.84.43.95.68,1.26,1.17.46,1.04.46,1.65c0,.42-.08.83-.23,1.23s-.42.85-.8,1.36-.91,1.12-1.6,1.85l-2.55,2.71v.09h5.37v1.3h-7.41Z"/>
    <path class="cls-1" d="m62.86,10.02v-1.21l5.09-8.06h.9v1.86h-.6l-3.8,6.02v.09h6.89v1.3h-8.48Zm5.48,2.37v-3.3s0-8.34,0-8.34h1.41v11.64h-1.42Z"/>
    <path class="cls-1" d="m78.16,12.39V.75h1.48v10.33h5.39v1.31h-6.88Z"/>
    <path class="cls-1" d="m90,12.5c-.59,0-1.11-.12-1.55-.36s-.79-.61-1.04-1.1-.37-1.1-.37-1.84V3.66h1.41v5.43c0,.67.18,1.2.53,1.58s.84.57,1.45.57c.42,0,.79-.09,1.12-.27s.59-.45.79-.8.29-.77.29-1.27V3.66h1.41v8.73h-1.36v-2.12h.19c-.27.82-.66,1.39-1.15,1.73s-1.07.5-1.71.5Zm-.09-9.98l1.09-2.3h1.57l-1.52,2.3h-1.15Z"/>
    <path class="cls-1" d="m100.55,12.58c-.55,0-1-.09-1.34-.29s-.6-.41-.78-.65-.32-.44-.42-.61h-.16v1.35h-1.36V.75h1.41v4.3h.11c.1-.16.24-.35.41-.59s.43-.45.77-.64.78-.28,1.35-.28c.73,0,1.37.18,1.93.55s.99.88,1.3,1.56.47,1.47.47,2.39-.16,1.73-.47,2.41-.75,1.2-1.3,1.57-1.2.55-1.93.55Zm-.21-1.26c.55,0,1-.15,1.37-.44s.64-.69.83-1.19.28-1.05.28-1.66-.09-1.15-.27-1.64-.46-.87-.82-1.16-.83-.43-1.38-.43-.99.14-1.35.41-.64.65-.82,1.13-.28,1.05-.28,1.69.09,1.22.28,1.71.46.88.83,1.16.81.42,1.34.42Z"/>
    <path class="cls-1" d="m109.97,12.58c-.84,0-1.57-.19-2.18-.56s-1.08-.9-1.41-1.57-.5-1.46-.5-2.35.16-1.68.48-2.37.78-1.22,1.37-1.6,1.28-.58,2.07-.58c.46,0,.92.08,1.37.23s.86.4,1.23.74.66.79.88,1.35.33,1.24.33,2.05v.59h-6.78v-1.19h6.02l-.66.44c0-.57-.09-1.08-.27-1.53s-.45-.79-.8-1.05-.79-.38-1.32-.38-.98.13-1.35.39-.66.59-.86,1.01-.3.86-.3,1.33v.79c0,.65.11,1.19.34,1.64s.54.79.94,1.02.87.35,1.4.35c.34,0,.66-.05.94-.15s.52-.25.73-.45.36-.45.47-.75l1.36.38c-.14.44-.36.82-.69,1.16s-.72.59-1.2.78-1.01.28-1.61.28Z"/>
    <path class="cls-1" d="m117.03.75v11.64h-1.41V.75h1.41Z"/>
    <path class="cls-1" d="m120.21,2.23c-.27,0-.5-.09-.69-.27s-.29-.4-.29-.66.1-.48.29-.66.42-.27.69-.27.5.09.7.27.29.4.29.66-.1.47-.29.66-.42.27-.7.27Zm-.71,10.16V3.66h1.41v8.73h-1.41Z"/>
  </g>
</svg>