<?xml version="1.0" encoding="UTF-8"?>
<svg id="Nav" xmlns="http://www.w3.org/2000/svg" viewBox="0 0 201 65">
  <defs>
    <style>
      .cls-1 {
        fill: #797b7c;
      }

      .cls-2 {
        fill: #a07c29;
      }
    </style>
  </defs>
  <path class="cls-2" d="m59.2,23.29c1.78.05,3.75-.63,5.86-2.02,6.02-3.98,12.95-13.74,11.41-16.07-.16-.24-.4-.39-.72-.46-2.38-.48-9.1,3.98-14.5,7.57-.5.33-.99.66-1.46.97l-2.17,1.43c-3.08.7-6.76,1.92-10.01,3-.57.19-1.13.37-1.66.55-.6.2-1.15.38-1.67.54-2.98.97-4.63,1.5-5.39,2.23-.11.11-.21.22-.28.33-.07-.11-.17-.22-.28-.33l-.04-.03h0c-.78-.71-2.43-1.24-5.39-2.21-.51-.16-1.05-.34-1.64-.53-.54-.18-1.09-.36-1.66-.55-3.25-1.08-6.93-2.3-10.01-3l-2.17-1.43c-.47-.31-.96-.64-1.46-.97C10.54,8.73,3.82,4.26,1.44,4.74c-.32.07-.57.22-.72.46-1.54,2.33,5.39,12.09,11.41,16.07,2.11,1.4,4.09,2.08,5.86,2.02,3.13,2.81,6.64,4.99,9.64,5.97.24.08.47.15.7.21-4.35.13-10.63,1.59-14.69,4.27-2.75,1.81-4.17,4.01-4.24,6.54-.06,2.19.93,4.16,1.76,5.42.53.81,1.02,1.37,1.69,1.51,1.1.22,2.55-.74,5.72-2.85.45-.3.93-.62,1.44-.96.47-.31.95-.62,1.44-.95,5.3-3.47,11.9-7.8,12.46-10.5.09-.43.02-.82-.19-1.15-.29-.43-.83-.76-1.61-.99,1.53-.18,2.86-.82,3.97-1.89-.09,1.67-.14,3.66-.14,6.09,0,6.02.28,13.51.74,19.56.81,10.73,1.64,10.73,1.91,10.73s1.1,0,1.91-10.73c.46-6.05.74-13.54.74-19.56,0-2.42-.05-4.42-.14-6.09,1.11,1.08,2.44,1.71,3.97,1.9-.79.23-1.33.56-1.61.99-.22.33-.28.71-.19,1.15.56,2.7,7.15,7.02,12.44,10.49.5.33.99.65,1.46.96.52.34,1,.66,1.45.96,3.17,2.11,4.61,3.07,5.71,2.84.67-.14,1.16-.7,1.69-1.51.83-1.26,1.82-3.23,1.76-5.42-.06-2.53-1.49-4.73-4.24-6.54-4.06-2.68-10.34-4.14-14.69-4.27.23-.06.46-.13.7-.21,3-.99,6.52-3.16,9.64-5.97Zm1.82-4.67c-1.29-.08-2-.77-2.24-1.4-.12-.31-.17-.64.43-1.3,2.62-.55,3.31-.24,3.43.13.16.48-.43,1.42-1.63,2.57Zm3.3-3.29c-.26-.8-1.13-1.2-2.63-1.2-.1,0-.2,0-.31,0,.53-.38,1.15-.8,1.88-1.28.35-.23.72-.48,1.09-.72,2.21-1.47,4.72-3.13,6.77-4.3,2.83-1.61,3.65-1.62,3.83-1.34.27.41-.41,1.93-2.55,4.44-1.99,2.34-4.42,4.56-6.5,5.93-.79.52-1.54.93-2.24,1.22.65-1.16.87-2.08.65-2.75Zm-19.26,16.35c.19-.28.75-.43,1.59-.43.97,0,2.31.19,3.85.57,3.07.76,6.15,2.04,8.24,3.42,1.99,1.31,3.13,2.74,3.39,4.23.25,1.4-.35,2.47-.73,2.98-.51.68-1.23.93-5.97-2.2-.35-.23-.72-.47-1.09-.72-3.8-2.5-9.01-5.92-9.33-7.48-.03-.15-.01-.28.06-.38Zm-1-9.52c-.22-.82.04-1.54,5.43-3.31l1.1-.36c1.1-.36,2.23-.74,3.37-1.1-.82.86-.81,1.56-.05,2.72.43.65,1.15,1.54,2.18,2.21-1.67,1-3.3,1.78-4.73,2.24-2.26.74-4.09.75-5.42.03-1.25-.68-1.72-1.81-1.88-2.42Zm-29,17.31c.26-1.5,1.4-2.92,3.39-4.23,3.56-2.35,9.28-4,12.09-4,.82,0,1.39.14,1.59.44.07.1.09.23.06.38-.32,1.56-5.54,4.99-9.35,7.49-.37.24-.73.48-1.07.71-4.73,3.12-5.46,2.88-5.97,2.2-.38-.51-.98-1.58-.73-2.98Zm8.17-22.09c1.14.36,2.27.74,3.37,1.1l1.1.36c5.39,1.77,5.65,2.49,5.43,3.31-.16.61-.63,1.75-1.88,2.42-1.34.72-3.16.71-5.42-.03-1.43-.47-3.06-1.24-4.73-2.24,1.03-.67,1.75-1.56,2.18-2.21.76-1.16.78-1.85-.05-2.72Zm-10.36-2.05c-.22.67,0,1.6.65,2.75-.7-.29-1.45-.7-2.24-1.22-2.08-1.37-4.51-3.59-6.5-5.93-2.13-2.5-2.82-4.03-2.55-4.44.19-.28,1-.28,3.83,1.34,2.05,1.17,4.56,2.83,6.77,4.3.37.25.74.49,1.09.72.73.48,1.34.9,1.88,1.28-1.69-.06-2.66.34-2.94,1.19Zm1.67.72c.07-.22.36-.43,1.17-.43.52,0,1.24.08,2.26.3.6.66.55.99.43,1.3h0c-.24.63-.95,1.33-2.24,1.4-1.19-1.15-1.78-2.09-1.63-2.57Z"/>
  <g>
    <g>
      <path class="cls-1" d="m106.7,20.68c.09,1.15.17,4.49.24,10,.04,3.44.12,5.73.27,6.88.14,1.14.59,2.09,1.34,2.83.75.75,1.62,1.12,2.59,1.12,1.28,0,2.56-.59,3.84-1.78,1.29-1.19,2.08-2.46,2.38-3.82.3-1.36.45-4.47.45-9.35,0-2.27-.14-3.64-.43-4.12-.28-.48-.98-.75-2.07-.82-.41-.02-.61-.17-.61-.45,0-.19.06-.32.19-.39.12-.06.52-.09,1.2-.09h5.32c.16,1.93.24,4.1.24,6.49l-.21,10c0,2.06.17,3.35.52,3.88.35.53.89.83,1.64.9.46.07.69.25.69.53,0,.32-.45.48-1.36.48h-4.2c-.73,0-1.09-.24-1.09-.72,0-.14,0-.3.03-.48.05-.53.08-1.07.08-1.62,0-.46-.03-1.13-.08-2.02-1.35,1.74-2.75,3.04-4.2,3.91-1.45.87-2.97,1.3-4.55,1.3-1.35,0-2.48-.33-3.39-.98-.91-.66-1.52-1.45-1.81-2.38-.29-.93-.49-3.25-.6-6.96-.11-3.71-.16-6.61-.16-8.72,0-1.15-.06-1.87-.19-2.15-.12-.28-.51-.44-1.17-.48-.71-.05-1.06-.23-1.06-.53s.43-.45,1.28-.45h4.89Zm2.63-3.91l4.1-5.74c.8-1.12,1.44-1.88,1.93-2.29.49-.41,1.04-.61,1.66-.61,1.13,0,1.7.56,1.7,1.68,0,.9-.87,2.01-2.61,3.32l-6.28,4.79c-.43.32-.72.48-.88.48-.25,0-.37-.11-.37-.35,0-.16.25-.59.74-1.28Z"/>
      <path class="cls-1" d="m132.71,23.2c1.97-2,4.24-3.01,6.81-3.01,2.85,0,5.27,1.1,7.25,3.3,1.98,2.2,2.97,4.78,2.97,7.74,0,3.21-.98,6.06-2.95,8.54-1.97,2.48-4.57,3.72-7.79,3.72-2.77,0-5.08-.69-6.94-2.07-.6-.44-1.02-.66-1.25-.66-.44,0-.79.38-1.04,1.14-.21.69-.44,1.04-.69,1.04-.3,0-.45-.24-.45-.72l.03-1.09.35-23.25c0-4.18-.02-6.62-.05-7.31-.04-.69-.21-1.21-.52-1.57-.31-.35-.89-.67-1.74-.96-.41-.12-.61-.3-.61-.53,0-.28.23-.41.69-.37l4.71-.05c.44.09.8.17,1.08.25.27.08.41.32.41.73,0,.18-.02.58-.05,1.2-.12,2.23-.19,6.88-.19,13.94Zm-.35,11.6c0,1.84.16,3.2.47,4.07.31.87.97,1.67,1.97,2.41,1,.74,2.23,1.1,3.68,1.1,1.88,0,3.49-.91,4.83-2.74,1.34-1.83,2.01-4.31,2.01-7.45,0-3.32-.62-5.92-1.85-7.81-1.23-1.89-2.92-2.83-5.07-2.83-1.9,0-3.38.76-4.44,2.29-1.06,1.53-1.6,5.18-1.6,10.96Z"/>
      <path class="cls-1" d="m157.05,30.6c-.07.9-.11,1.62-.11,2.15,0,2.52.74,4.65,2.23,6.38,1.48,1.74,3.32,2.61,5.5,2.61s4.11-.85,5.94-2.55c.53-.48.87-.72,1.01-.72.28,0,.43.23.45.69-.67,1.24-1.83,2.29-3.46,3.14-1.63.85-3.45,1.28-5.45,1.28-2.94,0-5.44-1.06-7.48-3.18-2.04-2.12-3.06-4.8-3.06-8.05,0-3.48,1.12-6.37,3.36-8.7,2.24-2.32,4.64-3.48,7.19-3.48,2.39,0,4.56.91,6.49,2.73,1.93,1.82,2.9,3.95,2.9,6.4,0,.37-.06.65-.17.82-.12.18-.79.27-2.04.27l-13.32.21Zm0-1.38c2.31.11,4.55.16,6.72.16l1.41-.08c1.07-.04,1.88-.24,2.45-.63.57-.38.85-1.05.85-2.01,0-1.49-.51-2.79-1.53-3.9-1.02-1.11-2.23-1.66-3.61-1.66-1.28,0-2.55.63-3.83,1.9-1.27,1.27-2.09,3.34-2.47,6.21Z"/>
      <path class="cls-1" d="m181.94,6.58c.05,2.23.1,4.47.13,6.7l-.05,16.56.11,8.03c0,1.52.22,2.62.65,3.3.43.67,1.37,1.07,2.81,1.2.57.05.85.22.85.51,0,.3-.23.45-.69.45-.12,0-.28,0-.45-.03-1.83-.18-4.01-.27-6.54-.27-1.54,0-2.78.08-3.72.24-.2.02-.37.03-.53.03-.53,0-.8-.16-.8-.49,0-.31.24-.47.72-.49,1.61-.02,2.67-.48,3.18-1.4s.76-2.44.76-4.59l-.08-15.16c-.02-4.88-.08-7.79-.2-8.74-.12-.95-.48-1.74-1.1-2.38-.62-.64-1.49-1.05-2.61-1.22-.69-.11-1.04-.29-1.04-.56,0-.3.28-.47.85-.51,3.24-.21,5.68-.6,7.31-1.17h.45Z"/>
      <path class="cls-1" d="m196.54,13.01l-.03,5.98.05,5.59v4.2l-.03,10.36c0,1.28.21,2.09.63,2.43.42.35,1.04.54,1.87.57.97.05,1.46.26,1.46.61,0,.28-.19.43-.56.43-.14,0-.3,0-.48-.03-1.65-.21-3.18-.32-4.6-.32-2.27,0-3.84.07-4.71.21-.18.03-.36.05-.53.05-.43,0-.64-.16-.64-.48s.49-.54,1.48-.66c.99-.12,1.62-.34,1.89-.65.27-.31.41-1.19.41-2.65l.19-18.18c0-2.94-.22-4.69-.67-5.23-.44-.54-1.3-.83-2.58-.86-.43,0-.64-.14-.64-.43,0-.16.07-.28.21-.37.14-.09,1.2-.2,3.16-.35,1.97-.14,3.33-.22,4.1-.24Zm-2.95-13.01c.67,0,1.28.25,1.81.74.53.5.8,1.04.8,1.62,0,.69-.22,1.29-.65,1.78-.43.5-1.03.74-1.8.74-.67,0-1.28-.22-1.81-.65s-.8-1.02-.8-1.77.23-1.32.68-1.78c.45-.46,1.04-.69,1.77-.69Z"/>
    </g>
    <path class="cls-1" d="m99.26,42.48c-.55.55-1.09.82-1.93,1.1s-3.31.28-6.06-.28c-1.91-.38-3.42-.29-3.42-.29-1.44,0-2.61.09-3.5.23-.2.02-.37.03-.53.03-.53,0-.8-.16-.8-.49s.24-.47.72-.49c1.01-.01,1.8-.2,2.38-.56.35-.22.61-.5.8-.84.09-.15.17-.33.23-.52.14-.37.25-.82.34-1.34.04-.28.08-.58.11-.9h0c.05-.55.07-1.16.07-1.83v-.81s-.08-18.49-.08-18.49c-.02-4.88-.08-7.79-.2-8.74-.12-.95-.48-1.74-1.11-2.38-.46-.48-1.06-.82-1.8-1.04-.25-.07-.52-.14-.8-.18-.69-.11-1.04-.29-1.04-.56,0-.3.28-.47.85-.5,3.25-.21,5.68-.6,7.32-1.17h.45c.01.47.02.93.03,1.4,0,.3.01.6.02.9.03,1.46.06,2.93.08,4.39l-.05,16.56s.1,9.34.1,11.89c0,3.8,2.03,4.7,4.96,4.7.8,0,1.61-.36,2.44-.94.57-.41.95-.52,1.13-.33.17.18-.16.92-.71,1.47Z"/>
  </g>
  <g>
    <path class="cls-1" d="m101.06,60.28v-.7c.41.17.83.25,1.25.25.55,0,1-.14,1.34-.41s.51-.77.51-1.5v-8.42h.71v8.64c0,.42-.09.82-.28,1.19-.19.37-.46.66-.83.87-.37.2-.83.31-1.4.31-.62-.01-1.05-.09-1.3-.23Z"/>
    <path class="cls-1" d="m111.47,54.92c0-1.07.21-2.04.63-2.89s1-1.53,1.74-2.01c.74-.48,1.59-.72,2.53-.72s1.85.24,2.59.72c.74.48,1.31,1.15,1.71,2,.4.85.6,1.82.6,2.9s-.21,2.03-.62,2.88c-.42.85-.99,1.52-1.73,2-.74.48-1.58.72-2.51.72-1,0-1.87-.24-2.61-.72-.75-.48-1.32-1.14-1.72-1.99-.4-.85-.6-1.81-.6-2.89Zm9.04,0c0-1.03-.18-1.93-.55-2.68-.37-.75-.86-1.32-1.49-1.71-.63-.39-1.33-.59-2.1-.59s-1.46.2-2.08.59c-.63.39-1.13.96-1.5,1.71-.37.75-.55,1.64-.55,2.68s.19,1.94.56,2.69c.37.75.87,1.31,1.51,1.69.63.38,1.34.57,2.11.57s1.45-.19,2.07-.57c.62-.38,1.11-.95,1.48-1.69.37-.75.55-1.64.55-2.69Z"/>
    <path class="cls-1" d="m129.94,55.98l-3.79-6.47h.78l3.34,5.84h.05l3.35-5.84h.78l-3.79,6.47v4.34h-.71v-4.34Z"/>
    <path class="cls-1" d="m140.48,49.51h6.16v.65h-5.45v4.3h4.99v.65h-4.99v4.57h5.76v.65h-6.47v-10.81Z"/>
    <path class="cls-1" d="m155.59,49.51c.67,0,1.2.03,1.58.08,1.75.34,2.63,1.27,2.63,2.78,0,.88-.29,1.61-.86,2.18-.58.57-1.34.88-2.28.93v.03l3.77,4.8h-.87l-3.77-4.75h-1.84v4.75h-.71v-10.81h2.37Zm3.46,2.84c0-.81-.31-1.38-.92-1.71-.61-.33-1.49-.49-2.62-.49h-1.58v4.76h1.61c1.17,0,2.05-.2,2.63-.6.58-.4.87-1.05.87-1.96Z"/>
    <path class="cls-1" d="m166.46,48.93l1.28-2h.86l-1.39,2h-.74Zm.06.58h.71v10.81h-.71v-10.81Z"/>
    <path class="cls-1" d="m173.31,60.32l4.42-10.81h.7l4.44,10.81h-.78l-1.55-3.84h-4.9l-1.54,3.84h-.78Zm6.95-4.49l-.41-1.04c-.9-2.24-1.48-3.71-1.74-4.44h-.03c-.22.61-.58,1.53-1.09,2.74-.16.37-.53,1.29-1.12,2.74h4.39Z"/>
  </g>
</svg>